# xmcd
#
# Track frame offsets: 
#        182
#        23387
#        41495
#        73250
#        94477
#        111957
#        128482
#        145905
#        158175
#        176055
#        186917
#        206697
#        222815
#
# Disc length: 3178 seconds
#
# Revision: 0
# Processed by: cddbd v1.5.2PL0 Copyright (c) Steve Scherf et al.
# Submitted via: ExactAudioCopy v0.95b4
#
DISCID=bc0c680d
DTITLE=Various Artist - The Paul Jones Rhythm And Blues Show
DYEAR=1988
DGENRE=
TTITLE0=I Once Was A Gambler - Phil Guy
TTITLE1=Love I Like Quicksand - Phil Guy
TTITLE2=Texas Flood - Phil Guy
TTITLE3=Tina Nu - Phil Guy
TTITLE4=Everyday I Have The Blues - Lowell Fulson
TTITLE5=Too Many Drivers - Lowell Fulson
TTITLE6=Going To Chicago - Lowell Fulson
TTITLE7=Low Down Dog - Lowell Fulson
TTITLE8=Roomin' House Boogie - Little Willie Littlefield
TTITLE9=Moon Is Rising - Little Willie Littlefield
TTITLE10=Good Rockin' Tonight - Little Willie Littlefield
TTITLE11=Soon One Morning - Louisiana Red
TTITLE12=After Awhile - Louisiana Red
EXTD=
EXTT0=
EXTT1=
EXTT2=
EXTT3=
EXTT4=
EXTT5=
EXTT6=
EXTT7=
EXTT8=
EXTT9=
EXTT10=
EXTT11=
EXTT12=
PLAYORDER=
